<?xml version="1.0" encoding="UTF-8"?>
<!-- Generator: Adobe Illustrator 15.1.0, SVG Export Plug-In . SVG Version: 6.00 Build 0)  -->
<!DOCTYPE svg PUBLIC "-//W3C//DTD SVG 1.1//EN" "http://www.w3.org/Graphics/SVG/1.1/DTD/svg11.dtd">
<svg version="1.1" xmlns="http://www.w3.org/2000/svg" xmlns:xlink="http://www.w3.org/1999/xlink" x="0px" y="0px" width="432px" height="432.5px" viewBox="0 0 432 432.5" enable-background="new 0 0 432 432.5" xml:space="preserve">
<g id="full_screen">
	<rect y="0.5" fill="#FFFFFF" stroke="#000000" stroke-miterlimit="10" width="432" height="432"/>
	<g>
		
			<rect x="294.115" y="113.52" transform="matrix(1.649419e-04 1 -1 1.649419e-04 474.2659 -220.5214)" fill="#333333" width="106.594" height="26.784"/>
		
			<rect x="253.663" y="73.621" transform="matrix(-1 1.641830e-04 -1.641830e-04 -1 614.4738 173.8397)" fill="#333333" width="107.134" height="26.649"/>
		
			<rect x="260.116" y="107.519" transform="matrix(-0.7089 0.7053 -0.7053 -0.7089 620.8776 -14.4105)" fill="#333333" width="106.593" height="26.784"/>
	</g>
	<g>
		
			<rect x="32.764" y="294.52" transform="matrix(-1.649102e-04 -1 1 -1.649102e-04 -221.8359 394.0234)" fill="#333333" width="106.594" height="26.784"/>
		<rect x="72.676" y="334.554" fill="#333333" width="107.134" height="26.648"/>
		
			<rect x="66.764" y="300.519" transform="matrix(0.7089 -0.7053 0.7053 0.7089 -186.4476 176.0436)" fill="#333333" width="106.593" height="26.785"/>
	</g>
	<rect x="578" y="0.5" fill="#FFFFFF" stroke="#000000" stroke-miterlimit="10" width="432" height="432"/>
</g>
<g id="minimise">
	<g>
		
			<rect x="646.939" y="152.695" transform="matrix(-1 1.648982e-04 -1.648982e-04 -1 1400.501 332.0579)" fill="#333333" width="106.595" height="26.784"/>
		
			<rect x="686.636" y="112.58" transform="matrix(-1.640757e-04 -1 1 -1.640757e-04 614.42 866.1283)" fill="#333333" width="107.134" height="26.648"/>
		
			<rect x="652.941" y="118.695" transform="matrix(-0.7053 -0.7089 0.7089 -0.7053 1110.6816 725.9243)" fill="#333333" width="106.593" height="26.784"/>
	</g>
	<g>
		
			<rect x="787.763" y="112.52" transform="matrix(-1.649102e-04 -1 1 -1.649102e-04 715.2878 966.9927)" fill="#333333" width="106.594" height="26.783"/>
		<rect x="827.676" y="152.553" fill="#333333" width="107.135" height="26.649"/>
		
			<rect x="821.764" y="118.52" transform="matrix(0.7089 -0.7053 0.7053 0.7089 161.6642 655.55)" fill="#333333" width="106.593" height="26.784"/>
	</g>
	<g>
		<rect x="827.94" y="253.345" fill="#333333" width="106.594" height="26.784"/>
		
			<rect x="787.704" y="293.594" transform="matrix(1.641075e-04 1 -1 1.641075e-04 1148.0514 -534.4029)" fill="#333333" width="107.134" height="26.649"/>
		
			<rect x="821.94" y="287.345" transform="matrix(0.7053 0.7089 -0.7089 0.7053 471.1704 -531.8571)" fill="#333333" width="106.593" height="26.783"/>
	</g>
	<g>
		
			<rect x="687.114" y="293.519" transform="matrix(1.649419e-04 1 -1 1.649419e-04 1047.2007 -433.5511)" fill="#333333" width="106.595" height="26.784"/>
		
			<rect x="646.662" y="253.62" transform="matrix(-1 1.641830e-04 -1.641830e-04 -1 1400.5028 533.7737)" fill="#333333" width="107.135" height="26.648"/>
		
			<rect x="653.115" y="287.519" transform="matrix(-0.7089 0.7053 -0.7053 -0.7089 1419.4351 16.021)" fill="#333333" width="106.593" height="26.785"/>
	</g>
</g>
</svg>